<?xml version="1.0" encoding="iso-8859-1"?>
<!-- Uploaded to: SVG Repo, www.svgrepo.com, Generator: SVG Repo Mixer Tools -->
<!DOCTYPE svg PUBLIC "-//W3C//DTD SVG 1.1//EN" "http://www.w3.org/Graphics/SVG/1.1/DTD/svg11.dtd">
<svg fill="#000000" height="800px" width="800px" version="1.1" id="Capa_1" xmlns="http://www.w3.org/2000/svg" xmlns:xlink="http://www.w3.org/1999/xlink" 
	 viewBox="0 0 215.5 215.5" xml:space="preserve">
<path d="M215.5,109.987v67.342c0,2.485-2.015,4.5-4.5,4.5h-17.106c-2.485,0-4.5-2.015-4.5-4.5v-12.254H26.106v12.254
	c0,2.485-2.015,4.5-4.5,4.5H4.5c-2.485,0-4.5-2.015-4.5-4.5V85.882c0-7.198,5.855-13.053,13.053-13.053
	c7.198,0,13.054,5.855,13.054,13.053v51.193h163.287v-27.088c0-7.198,5.855-13.053,13.053-13.053
	C209.645,96.934,215.5,102.789,215.5,109.987z M41.145,131.328h44.016c4.471,0,8.095-3.624,8.095-8.095
	c0-4.471-3.625-8.095-8.095-8.095H41.145c-4.471,0-8.095,3.625-8.095,8.095C33.049,127.704,36.674,131.328,41.145,131.328z
	 M108.563,80.802c0.469,0.468,1.104,0.73,1.767,0.73c0.001,0,0.002,0,0.002,0l17.832-0.016v17.832c0,1.381,1.119,2.5,2.5,2.5h22.488
	c1.381,0,2.5-1.119,2.5-2.5V81.491l17.856-0.016c1.381-0.001,2.499-1.122,2.498-2.502l-0.021-22.488
	c-0.001-0.663-0.265-1.298-0.733-1.767c-0.469-0.468-1.104-0.73-1.767-0.73c-0.001,0-0.002,0-0.002,0l-17.832,0.016V36.171
	c0-1.381-1.119-2.5-2.5-2.5h-22.488c-1.381,0-2.5,1.119-2.5,2.5v17.857l-17.856,0.016c-1.381,0.001-2.499,1.122-2.498,2.502
	l0.021,22.488C107.83,79.698,108.094,80.333,108.563,80.802z"/>
</svg>